<?xml version="1.0" encoding="UTF-8"?>
<svg width="72px" height="19px" viewBox="0 0 72 19" version="1.1" xmlns="http://www.w3.org/2000/svg" xmlns:xlink="http://www.w3.org/1999/xlink">
    <title>logo_title_white</title>
    <g id="Page-1" stroke="none" stroke-width="1" fill="none" fill-rule="evenodd">
        <g id="logo_title_white" fill="#FFFFFF" fill-rule="nonzero">
            <path d="M0,18 L0,0 L10,0 L10,4 L20,4 L20,18 L0,18 Z M2,16 L8,16 L8,14 L2,14 L2,16 Z M2,12 L8,12 L8,10 L2,10 L2,12 Z M2,8 L8,8 L8,6 L2,6 L2,8 Z M2,4 L8,4 L8,2 L2,2 L2,4 Z M10,16 L18,16 L18,6 L10,6 L10,16 Z M12,10 L12,8 L16,8 L16,10 L12,10 Z M12,14 L12,12 L16,12 L16,14 L12,14 Z" id="logo_white"></path>
            <g id="PMS" transform="translate(26.000000, 2.000000)">
                <path d="M6.58510638,10.2469471 L3.25531915,10.2469471 L3.25531915,16 L0,16 L0,0 L6.82978723,0 C8.40425532,0 9.65957447,0.412483039 10.5957447,1.23744912 C11.5319149,2.0624152 12,3.33966531 12,5.06919946 C12,6.95793758 11.5319149,8.29308005 10.5957447,9.07462687 C9.65957447,9.85617368 8.32269504,10.2469471 6.58510638,10.2469471 Z M8.11702128,6.91451832 C8.54255319,6.53098146 8.75531915,5.92311171 8.75531915,5.09090909 C8.75531915,4.25870647 8.54078014,3.66530981 8.11170213,3.31071913 C7.68262411,2.95612845 7.08156028,2.77883311 6.30851064,2.77883311 L3.25531915,2.77883311 L3.25531915,7.48982361 L6.30851064,7.48982361 C7.08156028,7.48982361 7.68439716,7.29805518 8.11702128,6.91451832 Z" id="Shape"></path>
                <path d="M18.2224561,16 L15,16 L15,0 L20.0301754,0 L23.0392982,12.5807327 L26.0259649,0 L31,0 L31,16 L27.7775439,16 L27.7775439,5.17774763 C27.7775439,4.86657621 27.7812865,4.4305744 27.7887719,3.8697422 C27.7962573,3.30891 27.8,2.87652646 27.8,2.57259159 L24.6673684,16 L21.3101754,16 L18.2,2.57259159 C18.2,2.87652646 18.2037427,3.30891 18.2112281,3.8697422 C18.2187135,4.4305744 18.2224561,4.86657621 18.2224561,5.17774763 L18.2224561,16 Z" id="Path"></path>
                <path d="M39.516129,14.2559486 C40.297491,14.2559486 40.9318996,14.1684887 41.4193548,13.9935691 C42.344086,13.6583065 42.8064516,13.0351554 42.8064516,12.1241158 C42.8064516,11.5920686 42.5770609,11.1802787 42.1182796,10.888746 C41.6594982,10.6045016 40.9390681,10.3530547 39.9569892,10.1344051 L38.2795699,9.75176849 C36.6308244,9.37277599 35.4910394,8.96098607 34.8602151,8.51639871 C33.7921147,7.77299035 33.2580645,6.61050375 33.2580645,5.02893891 C33.2580645,3.58585209 33.7741935,2.3869239 34.8064516,1.43215434 C35.8387097,0.47738478 37.3548387,0 39.3548387,0 C41.0250896,0 42.4498208,0.450053591 43.6290323,1.35016077 C44.8082437,2.25026795 45.4265233,3.55669882 45.483871,5.26945338 L42.3010753,5.26945338 C42.2437276,4.30010718 41.827957,3.6113612 41.0537634,3.20321543 C40.5376344,2.9335477 39.8960573,2.79871383 39.1290323,2.79871383 C38.2759857,2.79871383 37.5949821,2.97363344 37.0860215,3.32347267 C36.5770609,3.6733119 36.3225806,4.16162915 36.3225806,4.78842444 C36.3225806,5.3642015 36.5734767,5.79421222 37.0752688,6.07845659 C37.3978495,6.26795284 38.0860215,6.49024652 39.1397849,6.74533762 L41.8709677,7.41221865 C43.0681004,7.70375134 43.9713262,8.09367631 44.5806452,8.58199357 C45.5268817,9.33997856 46,10.4368703 46,11.8726688 C46,13.3449089 45.4462366,14.5675241 44.3387097,15.5405145 C43.2311828,16.5135048 41.6666667,17 39.6451613,17 C37.5806452,17 35.9569892,16.5207931 34.7741935,15.5623794 C33.5913978,14.6039657 33,13.2866024 33,11.6102894 L36.1612903,11.6102894 C36.2616487,12.3464094 36.4587814,12.8966774 36.7526882,13.2610932 C37.2903226,13.9243301 38.2114695,14.2559486 39.516129,14.2559486 Z" id="Path"></path>
            </g>
        </g>
    </g>
</svg>