<?xml version="1.0" encoding="UTF-8"?>
<svg width="20px" height="18px" viewBox="0 0 20 18" version="1.1" xmlns="http://www.w3.org/2000/svg" xmlns:xlink="http://www.w3.org/1999/xlink">
    <title>logo_white</title>
    <g id="Page-1" stroke="none" stroke-width="1" fill="none" fill-rule="evenodd">
        <g id="corporate_fare_24dp_FILL0_wght400_GRAD0_opsz24" fill="#FFFFFF" fill-rule="nonzero">
            <path d="M0,18 L0,0 L10,0 L10,4 L20,4 L20,18 L0,18 Z M2,16 L8,16 L8,14 L2,14 L2,16 Z M2,12 L8,12 L8,10 L2,10 L2,12 Z M2,8 L8,8 L8,6 L2,6 L2,8 Z M2,4 L8,4 L8,2 L2,2 L2,4 Z M10,16 L18,16 L18,6 L10,6 L10,16 Z M12,10 L12,8 L16,8 L16,10 L12,10 Z M12,14 L12,12 L16,12 L16,14 L12,14 Z" id="logo_white"></path>
        </g>
    </g>
</svg>